<svg width="21" height="21" viewBox="0 0 21 21" fill="none" xmlns="http://www.w3.org/2000/svg">
<g id="Group">
<path id="Vector" d="M10.0312 20.6283C15.5714 20.6283 20.0625 16.1372 20.0625 10.5971C20.0625 5.05697 15.5714 0.565826 10.0312 0.565826C4.49114 0.565826 0 5.05697 0 10.5971C0 16.1372 4.49114 20.6283 10.0312 20.6283Z" fill="#F89D30"/>
<path id="Vector_2" d="M8.02539 4.57836V6.58461C7.77862 6.59464 7.32621 6.58461 7.08998 6.58461H5.51758V7.58773C5.51758 7.58773 6.37976 7.57269 6.36572 7.58773C6.82716 7.58071 6.97462 7.91576 7.02227 8.13945V13.1049C7.00471 13.2464 7.01976 13.5965 6.69725 13.6065C6.7123 13.6195 5.51758 13.6065 5.51758 13.6065V14.6096H7.14966C7.42552 14.5996 7.75856 14.6096 8.02539 14.6096V16.6159L9.02852 16.5973V14.6096H10.0161L10.0472 16.6159H11.0503L11.0192 14.6096C14.0441 14.6096 14.0441 13.1049 14.0441 12.3516C14.0441 11.6002 13.7262 10.5981 12.5395 10.5971C13.2246 10.5981 13.5426 9.46508 13.5426 8.59086C13.5426 7.45883 12.5395 6.58461 11.0348 6.58461V4.57836H10.0316V6.58461C9.73221 6.58461 9.33246 6.57357 9.02852 6.58461V4.57836H8.02539ZM9.02852 7.58773C10.0316 7.58773 11.5363 7.58773 11.5363 8.84164C11.5363 10.0955 10.0316 10.0955 9.02852 10.0955V7.58773ZM9.02852 11.0987C11.0348 11.0987 12.0379 11.0987 12.0379 12.3526C12.0379 13.6065 11.0348 13.6065 9.02852 13.6065V11.0987Z" fill="white"/>
</g>
</svg>
