<svg width="21" height="20" viewBox="0 0 21 20" fill="none" xmlns="http://www.w3.org/2000/svg">
<g id="shiba-inu-shib-logo logo" clip-path="url(#clip0_30132_2924)">
<path id="Vector" d="M14.6123 2.11255C14.1202 2.60459 13.6695 3.13788 13.2688 3.70652L13.1421 3.66527C12.4114 3.42662 11.6542 3.2793 10.8911 3.22921C10.6613 3.21154 9.80387 3.21154 9.52397 3.22921C8.67837 3.28519 8.03017 3.41189 7.29359 3.66822C7.26413 3.68 7.23761 3.68884 7.21109 3.69768C6.79566 3.13198 6.33309 2.60164 5.82337 2.1155C8.26883 0.863306 11.1297 0.713043 13.6901 1.70007C13.9641 1.80319 14.2322 1.92399 14.4944 2.05363L14.6123 2.11255ZM19.1732 13.288C18.802 14.3457 18.2451 15.3269 17.5233 16.1813C17.1314 16.6409 16.6983 17.0623 16.2328 17.4453C15.1426 18.3233 13.8698 18.9509 12.5116 19.2808C11.0089 19.6432 9.44147 19.6432 7.93884 19.2808C6.57763 18.9509 5.30776 18.3233 4.21762 17.4453C3.7521 17.0623 3.31898 16.6409 2.92712 16.1813C0.849956 13.727 0.21944 10.3564 1.27717 7.31873C1.47752 6.75598 1.72796 6.21385 2.02849 5.69824C2.16697 5.46254 2.33785 5.19737 2.42035 5.08835C2.7032 6.30519 3.05087 7.37471 3.18051 7.76068C3.17167 7.7813 3.15988 7.80487 3.1481 7.8255C2.4616 9.21617 2.09036 10.5568 2.00197 11.9828C2.00197 12.0005 1.99903 12.0211 1.99903 12.0388C1.97546 12.466 1.98724 12.6693 2.05795 12.9374C2.27893 13.7771 2.95953 14.7022 4.02611 15.6097C5.77328 17.0947 8.14214 18.1671 9.93645 18.2909C11.8074 18.4176 14.5681 17.3245 16.4066 15.7276C16.6953 15.4712 16.9664 15.2002 17.2198 14.9114C17.4025 14.6993 17.6735 14.334 17.6529 14.334C17.647 14.334 17.6529 14.3281 17.6647 14.3222C17.6735 14.3163 17.6824 14.3074 17.6765 14.3015C17.6735 14.2986 17.6794 14.2898 17.6883 14.2868C17.6971 14.2839 17.703 14.278 17.7 14.2721C17.6971 14.2662 17.7 14.2603 17.7118 14.2573C17.7207 14.2544 17.7236 14.2456 17.7207 14.2397C17.7177 14.2338 17.7207 14.2279 17.7266 14.2279C17.7325 14.2279 17.7383 14.219 17.7383 14.2132C17.7383 14.2073 17.7442 14.1984 17.7501 14.1984C17.756 14.1984 17.7619 14.1925 17.7619 14.1866C17.7708 14.1631 17.7855 14.1395 17.8002 14.1189C17.8444 14.0511 18.0212 13.7358 18.0448 13.6828C18.2127 13.3027 18.3188 12.9639 18.3689 12.6251C18.3924 12.463 18.4072 12.1655 18.3954 12.0947C18.3924 12.083 18.3924 12.0623 18.3895 12.0299C18.3836 11.971 18.3806 11.8826 18.3748 11.7942C18.3689 11.6616 18.3571 11.476 18.3482 11.3847C18.2215 10.047 17.8798 8.95394 17.2316 7.79603C17.2051 7.75184 17.1815 7.70764 17.1668 7.67229C17.1609 7.66345 17.1579 7.65461 17.155 7.64872C17.2463 7.37471 17.6205 6.22858 17.9181 4.91746L17.924 4.92336L17.9682 4.98228C18.0448 5.08541 18.2481 5.39182 18.3394 5.53914C18.7548 6.2168 19.0789 6.94454 19.3087 7.7047C19.842 9.53437 19.7978 11.4848 19.1732 13.288Z" fill="#F00500"/>
<path id="Vector_2" d="M15.3498 9.76702C15.341 9.81416 15.2025 9.95558 15.064 10.0587C14.6575 10.3563 13.9297 10.6332 13.1902 10.7658C12.7689 10.8424 12.3475 10.8542 12.2208 10.7923C12.1383 10.7511 12.1266 10.7187 12.156 10.6126C12.2179 10.3916 12.4182 10.15 12.7305 9.92317C12.8897 9.80826 13.5349 9.4164 13.8354 9.25141C14.3304 8.98034 14.7311 8.8183 15.0022 8.77999C15.0876 8.76821 15.1907 8.76526 15.2231 8.77999C15.2762 8.80062 15.3351 8.95677 15.3587 9.14534C15.3705 9.24551 15.3646 9.68747 15.3498 9.76702ZM8.40828 10.7423C8.3906 10.7776 8.30221 10.8159 8.20203 10.8306C8.10186 10.8454 7.79544 10.8365 7.6216 10.8159C6.99698 10.7334 6.33406 10.5419 5.85086 10.3062C5.57979 10.1736 5.38534 10.041 5.24097 9.89665L5.15847 9.81121L5.14963 9.69925C5.1349 9.50479 5.13784 9.19837 5.16142 9.08936C5.17615 8.99802 5.20856 8.90963 5.25275 8.83008C5.27632 8.80062 5.27632 8.80062 5.38239 8.80062C5.51203 8.80062 5.62104 8.82124 5.79782 8.87722C6.16022 8.98918 6.6994 9.26025 7.35643 9.65505C7.89856 9.97915 8.10186 10.1383 8.25801 10.3563C8.36408 10.4918 8.43479 10.6833 8.40828 10.7423ZM12.5803 14.8436C12.5803 14.8524 12.5449 14.9938 12.5007 15.1618C12.4565 15.3297 12.4212 15.4652 12.4212 15.4711C12.3888 15.4741 12.3593 15.477 12.3269 15.4741H12.2326L12.103 15.7805C12.0323 15.9484 11.9674 16.1046 11.9586 16.1282L11.9409 16.1694L11.8791 16.0692L11.8172 15.9691V15.1529L11.7936 15.1588C11.7435 15.1706 11.387 15.2177 11.2309 15.2325C10.5856 15.2973 9.93742 15.2826 9.29512 15.1912C9.192 15.1765 9.10361 15.1647 9.10067 15.1676C9.09772 15.1706 9.10066 15.3592 9.10656 15.5919L9.1154 16.0103L9.06531 16.0869C9.03879 16.1282 9.01228 16.1635 9.01228 16.1665C9.00344 16.1753 8.97397 16.1282 8.90621 15.9926C8.83255 15.8512 8.77951 15.7009 8.74121 15.5448L8.72059 15.4593L8.62925 15.4652L8.53792 15.4741L8.51434 15.3651C8.50256 15.3061 8.48783 15.2148 8.48194 15.1647L8.4731 15.0704L8.39649 15.0027C8.3523 14.9644 8.3081 14.926 8.29926 14.9202C8.28453 14.9084 8.27864 14.8877 8.27864 14.8701V14.8347L8.64693 14.8377L9.01522 14.8406L9.02701 14.8789L9.03879 14.9172L9.16548 14.9231C9.2362 14.926 9.46012 14.9319 9.66047 14.9378L10.0288 14.9467L10.123 14.7994L10.2203 14.652H10.344L10.3411 14.3456L10.3381 14.0392L10.1761 13.9685C9.65458 13.7387 9.34816 13.4765 9.23325 13.1582C9.20968 13.0934 9.20968 13.0699 9.20379 12.7752C9.20084 12.4835 9.20084 12.457 9.22146 12.3922C9.26271 12.2449 9.37762 12.13 9.52494 12.0917C9.57503 12.0769 9.70761 12.0769 10.4029 12.0769L11.222 12.0799L11.3134 12.1241C11.4224 12.1771 11.4725 12.2154 11.5343 12.2979C11.605 12.3922 11.6257 12.4659 11.6257 12.6456C11.6257 12.9019 11.608 13.1229 11.5815 13.2113C11.5432 13.3321 11.4843 13.447 11.4106 13.5501C11.2633 13.7387 10.9952 13.9272 10.7506 14.0127L10.6799 14.0392L10.6828 14.3486L10.6858 14.6579L10.7506 14.6638L10.8154 14.6697L10.9038 14.8023L10.9893 14.9349H11.3841C11.6021 14.9349 11.7936 14.9378 11.8113 14.9408C11.8408 14.9467 11.8466 14.9437 11.8761 14.8936L11.9115 14.8406H12.2503C12.5037 14.8288 12.5803 14.8347 12.5803 14.8436Z" fill="white"/>
<path id="Vector_3" d="M11.0248 15.6894C10.9688 15.7218 10.9305 15.7365 10.9217 15.7307C10.9128 15.7277 10.8716 15.6923 10.8274 15.6599L10.7478 15.5951L10.6653 15.6835C10.4856 15.878 10.4797 15.8868 10.4267 15.8898C10.3442 15.8986 10.3265 15.8839 10.2263 15.7336C10.1733 15.657 10.132 15.5922 10.132 15.5922C10.132 15.5922 10.0937 15.5863 10.0495 15.5833L9.96704 15.5745L9.92874 15.654L9.89044 15.7336L9.82267 15.713C9.76964 15.6953 9.7166 15.6747 9.66652 15.6511L9.57812 15.6069V15.439L10.3619 15.4419L11.1456 15.4449L11.1485 15.5244C11.1515 15.6187 11.1544 15.6157 11.0248 15.6894Z" fill="white"/>
<path id="Vector_4" d="M18.3898 12.0949C18.3868 12.0831 18.3868 12.0625 18.3839 12.0301C17.6768 11.9535 15.6585 11.9063 13.7847 13.4531C13.7847 13.4531 13.1807 10.6836 10.3522 10.6836C7.52369 10.6836 6.4748 13.4531 6.4748 13.4531C4.88967 11.7472 2.76831 11.871 2.00226 11.9829C2.00226 12.0006 1.99931 12.0212 1.99931 12.0389C1.97574 12.4661 1.98753 12.6694 2.05824 12.9375C2.27922 13.7772 2.95982 14.7024 4.02639 15.6099C5.77357 17.0948 8.14242 18.1673 9.93674 18.291C11.8077 18.4177 14.5684 17.3246 16.4069 15.7277C16.6956 15.4714 16.9667 15.2003 17.2201 14.9116C17.4028 14.6994 17.6738 14.3341 17.6532 14.3341C17.6473 14.3341 17.6532 14.3282 17.665 14.3223C17.6738 14.3164 17.6827 14.3076 17.6768 14.3017C17.6738 14.2987 17.6797 14.2899 17.6885 14.287C17.6974 14.284 17.7033 14.2781 17.7003 14.2722C17.6974 14.2663 17.7003 14.2604 17.7121 14.2575C17.721 14.2546 17.7239 14.2457 17.721 14.2398C17.718 14.2339 17.721 14.228 17.7269 14.228C17.7327 14.228 17.7386 14.2192 17.7386 14.2133C17.7386 14.2074 17.7445 14.1986 17.7504 14.1986C17.7563 14.1986 17.7622 14.1927 17.7622 14.1868C17.771 14.1632 17.7858 14.1396 17.8005 14.119C17.8447 14.0513 18.0215 13.736 18.0451 13.683C18.213 13.3029 18.3191 12.9641 18.3692 12.6252C18.3868 12.4632 18.4016 12.1656 18.3898 12.0949ZM11.0239 15.6894C10.968 15.7218 10.9297 15.7366 10.9208 15.7307C10.912 15.7277 10.8707 15.6924 10.8265 15.66L10.747 15.5951L10.6645 15.6835C10.4848 15.878 10.4789 15.8868 10.4258 15.8898C10.3433 15.8986 10.3257 15.8839 10.2255 15.7336C10.1724 15.657 10.1312 15.5922 10.1312 15.5922C10.1312 15.5922 10.0929 15.5863 10.0487 15.5833L9.9662 15.5745L9.9279 15.6541L9.8896 15.7336L9.82183 15.713C9.7688 15.6953 9.71577 15.6747 9.66568 15.6511L9.57729 15.6069V15.439L10.361 15.4419L11.1447 15.4449L11.1477 15.5244C11.1506 15.6187 11.1536 15.6158 11.0239 15.6894ZM12.4971 15.1591C12.4529 15.327 12.4176 15.4625 12.4176 15.4684C12.3851 15.4714 12.3557 15.4743 12.3233 15.4714H12.229L12.1023 15.7808C12.0316 15.9487 11.9668 16.1049 11.9579 16.1284L11.9402 16.1697L11.8784 16.0695L11.8165 15.9693V15.1532L11.7929 15.1591C11.7428 15.1709 11.3863 15.218 11.2302 15.2327C10.5849 15.2976 9.93674 15.2828 9.29444 15.1915C9.19132 15.1768 9.10293 15.165 9.09998 15.1679C9.09704 15.1709 9.09998 15.3594 9.10587 15.5922L9.11471 16.0106L9.06463 16.0872C9.03811 16.1284 9.01159 16.1638 9.01159 16.1667C9.00275 16.1756 8.97329 16.1284 8.90552 15.9929C8.83187 15.8515 8.77883 15.7012 8.74053 15.545L8.7199 15.4596L8.62857 15.4655L8.53723 15.4743L8.51366 15.3653C8.50188 15.3064 8.48714 15.2151 8.48125 15.165L8.47241 15.0707L8.39581 15.0029C8.35161 14.9646 8.30742 14.9263 8.29858 14.9204C8.28385 14.9086 8.27795 14.888 8.27795 14.8703V14.835L8.64625 14.8379L9.01454 14.8409L9.02632 14.8792L9.03811 14.9175L9.1648 14.9234C9.23551 14.9263 9.45943 14.9322 9.65979 14.9381L10.0281 14.9469L10.1224 14.7996L10.2196 14.6523H10.3433L10.3404 14.3459L10.3374 14.0395L10.1754 13.9688C9.65389 13.7389 9.34747 13.4767 9.23257 13.1585C9.209 13.0937 9.209 13.0701 9.2031 12.7755C9.20016 12.4838 9.20016 12.4573 9.22078 12.3925C9.26203 12.2452 9.37694 12.1302 9.52425 12.0919C9.57434 12.0772 9.70693 12.0772 10.4023 12.0772L11.2213 12.0802L11.3127 12.1244C11.4217 12.1774 11.4718 12.2157 11.5337 12.2982C11.6044 12.3925 11.625 12.4661 11.625 12.6459C11.625 12.9022 11.6073 13.1232 11.5808 13.2115C11.5425 13.3323 11.4836 13.4473 11.4099 13.5504C11.2626 13.7389 10.9945 13.9275 10.7499 14.013L10.6792 14.0395L10.6822 14.3488L10.6851 14.6582L10.7499 14.6641L10.8147 14.67L10.9031 14.8026L10.9886 14.9352H11.3834C11.6014 14.9352 11.7929 14.9381 11.8106 14.941C11.8401 14.9469 11.846 14.944 11.8754 14.8939L11.9108 14.8409H12.2496C12.5118 14.8409 12.5884 14.8438 12.5884 14.8527C12.5796 14.8497 12.5413 14.9941 12.4971 15.1591Z" fill="white"/>
<path id="Vector_5" d="M18.3669 11.7943C18.361 11.6617 18.3492 11.4761 18.3404 11.3848C18.2137 10.0471 17.8719 8.95405 17.2237 7.79614C17.1972 7.75195 17.1736 7.70775 17.1589 7.67239C17.153 7.66356 17.1501 7.65472 17.1471 7.64882C17.2385 7.37481 17.6126 6.22869 17.9102 4.91757C18.3139 3.13798 18.5702 1.05787 17.7865 0.433248C17.7865 0.433248 16.4312 0.333073 14.6162 2.11266C14.1242 2.6047 13.6734 3.13798 13.2727 3.70663L13.146 3.66538C12.4153 3.42672 11.6581 3.27941 10.895 3.22932C10.6652 3.21164 9.80781 3.21164 9.5279 3.22932C8.68231 3.2853 8.03411 3.41199 7.29753 3.66832C7.26806 3.68011 7.24155 3.68895 7.21503 3.69779C6.7996 3.13209 6.33702 2.60175 5.82731 2.11561C3.93871 0.32718 2.5333 0.430302 2.5333 0.430302C1.70244 1.07555 1.98528 3.24994 2.41545 5.08846C2.6983 6.30529 3.04597 7.37481 3.1756 7.76078C3.16677 7.78141 3.15498 7.80498 3.14319 7.8256C2.4567 9.21627 2.08546 10.5569 1.99707 11.9829C2.76606 11.8709 4.88448 11.7442 6.47255 13.4531C6.47255 13.4531 7.52145 10.6835 10.3499 10.6835C13.1784 10.6835 13.7824 13.4531 13.7824 13.4531C15.6563 11.9063 17.6745 11.9564 18.3816 12.03C18.3787 11.9711 18.3728 11.8827 18.3669 11.7943ZM3.73246 6.65002C3.73246 6.65002 2.63053 3.89519 2.91338 2.32185C2.96052 2.05668 3.04891 1.82392 3.18739 1.64714C3.18739 1.64714 4.43664 1.77088 6.45193 4.0101C6.45193 4.0101 6.06891 4.19572 5.55624 4.59053C5.55624 4.59053 5.5533 4.59347 5.55035 4.59347C4.99349 5.02069 4.28048 5.69835 3.73246 6.65002ZM8.4083 10.7425C8.39062 10.7778 8.30223 10.8161 8.20205 10.8309C8.10188 10.8456 7.79546 10.8368 7.62162 10.8161C6.997 10.7336 6.33408 10.5421 5.85088 10.3064C5.57981 10.1738 5.38536 10.0412 5.24099 9.89688L5.15849 9.81143L5.14965 9.69947C5.13492 9.50501 5.13786 9.1986 5.16143 9.08958C5.17617 8.99825 5.20858 8.90985 5.25277 8.8303C5.27634 8.80084 5.27634 8.80084 5.38241 8.80084C5.51205 8.80084 5.62106 8.82146 5.79784 8.87745C6.16024 8.98941 6.69942 9.26047 7.35645 9.65528C7.89858 9.97937 8.10188 10.1385 8.25803 10.3565C8.3641 10.492 8.43481 10.6835 8.4083 10.7425ZM15.3499 9.76724C15.341 9.81438 15.2025 9.9558 15.0641 10.0589C14.6575 10.3565 13.9297 10.6335 13.1902 10.766C12.7689 10.8427 12.3475 10.8544 12.2209 10.7926C12.1384 10.7513 12.1266 10.7189 12.156 10.6128C12.2179 10.3919 12.4183 10.1503 12.7306 9.92339C12.8897 9.80849 13.5349 9.41662 13.8354 9.25163C14.3304 8.98057 14.7311 8.81852 15.0022 8.78022C15.0876 8.76843 15.1908 8.76548 15.2232 8.78022C15.2762 8.80084 15.3351 8.957 15.3587 9.14556C15.3705 9.24574 15.3646 9.68769 15.3499 9.76724ZM14.8608 4.59053L14.8549 4.58758C14.3599 4.19277 13.9887 4.00715 13.9887 4.00715C15.9362 1.76794 17.1412 1.64419 17.1412 1.64419C17.2738 1.82392 17.3593 2.05373 17.4064 2.3189C17.6804 3.89225 16.6168 6.65002 16.6168 6.65002C16.1719 5.85745 15.5738 5.15622 14.8608 4.59053Z" fill="#FFA409"/>
<path id="Vector_6" d="M17.409 2.31875C17.1792 2.28929 16.092 2.2834 14.8604 4.59038L14.8545 4.58743C14.3595 4.19262 13.9883 4.007 13.9883 4.007C15.9358 1.76779 17.1409 1.64404 17.1409 1.64404C17.2764 1.82377 17.3618 2.05358 17.409 2.31875Z" fill="#FF9300"/>
<path id="Vector_7" d="M16.6193 6.64995C16.1715 5.85444 15.5763 5.15616 14.8604 4.59047C16.0919 2.28349 17.1762 2.28938 17.4089 2.31884C17.6829 3.89513 16.6193 6.64995 16.6193 6.64995Z" fill="#FF8300"/>
<path id="Vector_8" d="M6.45165 4.007C6.45165 4.007 6.06863 4.19262 5.55597 4.58743C5.55597 4.58743 5.55302 4.59038 5.55007 4.59038C4.27431 2.28045 3.15176 2.28929 2.91016 2.31875C2.9573 2.05358 3.04569 1.82082 3.18417 1.64404C3.18711 1.64404 4.43636 1.76779 6.45165 4.007Z" fill="#FF9300"/>
<path id="Vector_9" d="M5.55229 4.59047C4.99249 5.02063 4.27948 5.69534 3.73146 6.64995C3.73146 6.64995 2.62953 3.89513 2.91238 2.31884C3.15103 2.28938 4.27653 2.28349 5.55229 4.59047ZM2.91238 2.31884C2.89764 2.32179 2.87997 2.32473 2.86523 2.32768L2.91238 2.31884Z" fill="#FF8300"/>
<path id="Vector_10" d="M13.6372 8.17911C13.6372 8.17911 12.6943 8.23804 12.8122 7.50146C12.93 6.76487 13.6666 6.67648 13.8729 6.70595C14.0791 6.73541 14.9041 7.03004 14.7568 7.64877C14.6094 8.2675 14.4032 8.14965 14.2853 8.17911C14.1675 8.20858 13.6372 8.17911 13.6372 8.17911ZM6.6838 8.17911C6.6838 8.17911 5.74097 8.23804 5.85883 7.50146C5.97668 6.76487 6.71326 6.67648 6.91951 6.70595C7.12575 6.73541 7.95073 7.03004 7.80341 7.64877C7.65609 8.2675 7.44985 8.14965 7.332 8.17911C7.21414 8.20858 6.6838 8.17911 6.6838 8.17911Z" fill="white"/>
</g>
<defs>
<clipPath id="clip0_30132_2924">
<rect width="20.0625" height="19.3162" fill="white" transform="translate(0 0.327148)"/>
</clipPath>
</defs>
</svg>
