<svg width="26" height="26" viewBox="0 0 26 26" fill="none" xmlns="http://www.w3.org/2000/svg">
<g id="Galaxy Store icon">
<rect id="gradient" width="26" height="26" rx="10" fill="url(#paint0_angular_30076_1123)"/>
<path id="bag" fill-rule="evenodd" clip-rule="evenodd" d="M16.7914 9.56946L16.738 9.33411C16.738 7.2733 15.0609 5.5968 12.9997 5.5968C10.9385 5.5968 9.26169 7.2733 9.26169 9.33411L9.20812 9.56946H6.13867L6.96604 17.2826C7.13176 18.8515 8.45485 20.0421 10.0326 20.0421H15.9669C17.5446 20.0421 18.8677 18.8515 19.0334 17.2828L19.8609 9.56946H16.7914ZM10.8331 9.56946L10.8934 9.33411C10.8934 8.17288 11.8383 7.22815 12.9997 7.22815C14.1613 7.22815 15.1063 8.17288 15.1063 9.33411L15.1664 9.56946H10.8331Z" fill="white"/>
</g>
<defs>
<radialGradient id="paint0_angular_30076_1123" cx="0" cy="0" r="1" gradientUnits="userSpaceOnUse" gradientTransform="translate(13 13) rotate(88.8309) scale(13.0027)">
<stop offset="0.000415415" stop-color="#F4605E"/>
<stop offset="0.0642377" stop-color="#E94B80"/>
<stop offset="0.128396" stop-color="#DE33A4"/>
<stop offset="0.186654" stop-color="#D41AC8"/>
<stop offset="0.250949" stop-color="#CB06E5"/>
<stop offset="0.281719" stop-color="#C902EC"/>
<stop offset="0.316858" stop-color="#CB04E5"/>
<stop offset="0.371347" stop-color="#D108D3"/>
<stop offset="0.43351" stop-color="#D80DBA"/>
<stop offset="0.504024" stop-color="#E1139E"/>
<stop offset="0.59576" stop-color="#EC1E7B"/>
<stop offset="0.673288" stop-color="#F22A65"/>
<stop offset="0.713795" stop-color="#F5355B"/>
<stop offset="0.754495" stop-color="#F74452"/>
<stop offset="0.818581" stop-color="#F75651"/>
<stop offset="0.878478" stop-color="#F76051"/>
<stop offset="0.938046" stop-color="#F76551"/>
</radialGradient>
</defs>
</svg>
